<svg id="visual" viewBox="0 0 900 600" width="900" height="600" xmlns="http://www.w3.org/2000/svg" xmlns:xlink="http://www.w3.org/1999/xlink" version="1.1"><path d="M0 121L12.5 114C25 107 50 93 75 81C100 69 125 59 150 78C175 97 200 145 225 171C250 197 275 201 300 180C325 159 350 113 375 103C400 93 425 119 450 118C475 117 500 89 525 78C550 67 575 73 600 94C625 115 650 151 675 146C700 141 725 95 750 74C775 53 800 57 825 59C850 61 875 61 887.5 61L900 61L900 0L887.5 0C875 0 850 0 825 0C800 0 775 0 750 0C725 0 700 0 675 0C650 0 625 0 600 0C575 0 550 0 525 0C500 0 475 0 450 0C425 0 400 0 375 0C350 0 325 0 300 0C275 0 250 0 225 0C200 0 175 0 150 0C125 0 100 0 75 0C50 0 25 0 12.5 0L0 0Z" fill="#78cffd"></path><path d="M0 241L12.5 247C25 253 50 265 75 272C100 279 125 281 150 296C175 311 200 339 225 355C250 371 275 375 300 349C325 323 350 267 375 253C400 239 425 267 450 290C475 313 500 331 525 337C550 343 575 337 600 339C625 341 650 351 675 325C700 299 725 237 750 210C775 183 800 191 825 187C850 183 875 167 887.5 159L900 151L900 59L887.5 59C875 59 850 59 825 57C800 55 775 51 750 72C725 93 700 139 675 144C650 149 625 113 600 92C575 71 550 65 525 76C500 87 475 115 450 116C425 117 400 91 375 101C350 111 325 157 300 178C275 199 250 195 225 169C200 143 175 95 150 76C125 57 100 67 75 79C50 91 25 105 12.5 112L0 119Z" fill="#42c0fe"></path><path d="M0 463L12.5 468C25 473 50 483 75 484C100 485 125 477 150 478C175 479 200 489 225 499C250 509 275 519 300 520C325 521 350 513 375 518C400 523 425 541 450 549C475 557 500 555 525 551C550 547 575 541 600 542C625 543 650 551 675 543C700 535 725 511 750 498C775 485 800 483 825 480C850 477 875 473 887.5 471L900 469L900 149L887.5 157C875 165 850 181 825 185C800 189 775 181 750 208C725 235 700 297 675 323C650 349 625 339 600 337C575 335 550 341 525 335C500 329 475 311 450 288C425 265 400 237 375 251C350 265 325 321 300 347C275 373 250 369 225 353C200 337 175 309 150 294C125 279 100 277 75 270C50 263 25 251 12.5 245L0 239Z" fill="#00a8e8"></path><path d="M0 601L12.5 601C25 601 50 601 75 601C100 601 125 601 150 601C175 601 200 601 225 601C250 601 275 601 300 601C325 601 350 601 375 601C400 601 425 601 450 601C475 601 500 601 525 601C550 601 575 601 600 601C625 601 650 601 675 601C700 601 725 601 750 601C775 601 800 601 825 601C850 601 875 601 887.5 601L900 601L900 467L887.5 469C875 471 850 475 825 478C800 481 775 483 750 496C725 509 700 533 675 541C650 549 625 541 600 540C575 539 550 545 525 549C500 553 475 555 450 547C425 539 400 521 375 516C350 511 325 519 300 518C275 517 250 507 225 497C200 487 175 477 150 476C125 475 100 483 75 482C50 481 25 471 12.5 466L0 461Z" fill="#0088ba"></path></svg>